<svg width="1265" height="877" viewBox="0 0 1265 877" fill="none" xmlns="http://www.w3.org/2000/svg">
<path d="M1264.86 780.594H0V781.226H1264.86V780.594Z" fill="#D7DCE3"/>
<path d="M1138.12 821.297H1054.33V821.929H1138.12V821.297Z" fill="#D7DCE3"/>
<path d="M837.891 828.176H815.908V828.808H837.891V828.176Z" fill="#D7DCE3"/>
<path d="M1051.8 797.82H1003.26V798.453H1051.8V797.82Z" fill="#D7DCE3"/>
<path d="M241.967 802.07H132.709V802.703H241.967V802.07Z" fill="#D7DCE3"/>
<path d="M280.52 802.07H264.507V802.703H280.52V802.07Z" fill="#D7DCE3"/>
<path d="M569.565 812.746H332.582V813.379H569.565V812.746Z" fill="#D7DCE3"/>
<path d="M1003.13 91.5985L1016.64 93.8247L1003.13 96.0508L1000.88 109.559L998.654 96.0508L985.146 93.8247L998.654 91.5985L1000.88 78.0898L1003.13 91.5985Z" fill="#D7DCE3"/>
<path d="M1004.04 93.8261L1012.04 104.957L1000.88 96.9882L989.749 104.957L997.743 93.8261L989.749 82.6953L1000.88 90.6892L1012.04 82.6953L1004.04 93.8261Z" fill="#D7DCE3"/>
<path d="M1004.02 93.8282C1004.02 94.6602 1003.69 95.4581 1003.1 96.0463C1002.51 96.6346 1001.71 96.9651 1000.88 96.9651C1000.05 96.9651 999.251 96.6346 998.663 96.0463C998.075 95.4581 997.744 94.6602 997.744 93.8282C997.744 92.9963 998.075 92.1984 998.663 91.6102C999.251 91.0219 1000.05 90.6914 1000.88 90.6914C1001.71 90.6914 1002.51 91.0219 1003.1 91.6102C1003.69 92.1984 1004.02 92.9963 1004.02 93.8282Z" fill="#C5CEDA"/>
<path d="M1097.84 614.339L1111.38 616.565L1097.84 618.791L1095.62 632.3L1093.39 618.791L1079.88 616.565L1093.39 614.339L1095.62 600.805L1097.84 614.339Z" fill="#D7DCE3"/>
<path d="M1098.78 616.564L1106.75 627.695L1095.62 619.701L1084.49 627.695L1092.48 616.564L1084.49 605.434L1095.62 613.402L1106.75 605.434L1098.78 616.564Z" fill="#D7DCE3"/>
<path d="M1098.76 616.567C1098.76 617.187 1098.57 617.793 1098.23 618.309C1097.88 618.825 1097.39 619.227 1096.82 619.465C1096.25 619.702 1095.62 619.764 1095.01 619.643C1094.4 619.522 1093.84 619.223 1093.4 618.785C1092.96 618.346 1092.66 617.787 1092.54 617.178C1092.42 616.57 1092.48 615.939 1092.72 615.366C1092.96 614.793 1093.36 614.303 1093.88 613.958C1094.39 613.614 1095 613.43 1095.62 613.43C1096.45 613.43 1097.25 613.76 1097.84 614.348C1098.43 614.937 1098.76 615.735 1098.76 616.567Z" fill="#C5CEDA"/>
<path d="M348.873 809.104L362.382 811.33L348.873 813.557L346.647 827.065L344.421 813.557L330.887 811.33L344.421 809.104L346.647 795.57L348.873 809.104Z" fill="#D7DCE3"/>
<path d="M349.784 811.33L357.778 822.461L346.647 814.467L335.517 822.461L343.485 811.33L335.517 800.199L346.647 808.168L357.778 800.199L349.784 811.33Z" fill="#D7DCE3"/>
<path d="M349.758 811.332C349.758 811.954 349.573 812.561 349.228 813.078C348.882 813.594 348.39 813.996 347.816 814.233C347.241 814.469 346.609 814.53 346 814.407C345.391 814.284 344.832 813.982 344.394 813.541C343.957 813.1 343.66 812.539 343.542 811.929C343.423 811.318 343.489 810.687 343.731 810.114C343.972 809.542 344.378 809.053 344.897 808.712C345.416 808.37 346.025 808.19 346.647 808.195C347.474 808.202 348.265 808.536 348.848 809.123C349.431 809.711 349.758 810.505 349.758 811.332V811.332Z" fill="#C5CEDA"/>
<path d="M832.63 35.743L846.164 37.9692L832.63 40.1953L830.404 53.7293L828.178 40.1953L814.669 37.9692L828.178 35.743L830.404 22.2344L832.63 35.743Z" fill="#D7DCE3"/>
<path d="M833.566 37.9706L841.535 49.1013L830.404 41.1327L819.273 49.1013L827.267 37.9706L819.273 26.8398L830.404 34.8337L841.535 26.8398L833.566 37.9706Z" fill="#D7DCE3"/>
<path d="M833.54 37.9689C833.54 38.8008 833.21 39.5987 832.622 40.187C832.033 40.7752 831.235 41.1057 830.403 41.1057C829.572 41.1057 828.774 40.7752 828.185 40.187C827.597 39.5987 827.267 38.8008 827.267 37.9689C827.267 37.1369 827.597 36.3391 828.185 35.7508C828.774 35.1625 829.572 34.832 830.403 34.832C831.235 34.832 832.033 35.1625 832.622 35.7508C833.21 36.3391 833.54 37.1369 833.54 37.9689V37.9689Z" fill="#C5CEDA"/>
<path d="M938.776 269.263L952.285 271.489L938.776 273.715L936.55 287.224L934.324 273.715L920.815 271.489L934.324 269.263L936.55 255.754L938.776 269.263Z" fill="#D7DCE3"/>
<path d="M939.687 271.486L947.681 282.617L936.551 274.648L925.42 282.617L933.414 271.486L925.42 260.355L936.551 268.349L947.681 260.355L939.687 271.486Z" fill="#D7DCE3"/>
<path d="M939.688 271.488C939.688 272.109 939.504 272.715 939.159 273.231C938.814 273.747 938.325 274.149 937.751 274.386C937.178 274.624 936.547 274.686 935.939 274.565C935.33 274.444 934.772 274.145 934.333 273.706C933.894 273.268 933.595 272.709 933.474 272.1C933.353 271.492 933.415 270.861 933.653 270.288C933.89 269.715 934.292 269.225 934.808 268.88C935.324 268.536 935.931 268.352 936.551 268.352C937.381 268.358 938.175 268.691 938.762 269.278C939.349 269.864 939.681 270.658 939.688 271.488V271.488Z" fill="#C5CEDA"/>
<path d="M937.183 783.272L950.691 785.498L937.183 787.725L934.956 801.233L932.73 787.725L919.222 785.498L932.73 783.272L934.956 769.738L937.183 783.272Z" fill="#D7DCE3"/>
<path d="M938.094 785.502L946.088 796.633L934.957 788.639L923.826 796.633L931.795 785.502L923.826 774.371L934.957 782.34L946.088 774.371L938.094 785.502Z" fill="#D7DCE3"/>
<path d="M938.094 785.5C938.094 786.332 937.764 787.13 937.175 787.718C936.587 788.307 935.789 788.637 934.957 788.637C934.125 788.637 933.327 788.307 932.739 787.718C932.151 787.13 931.82 786.332 931.82 785.5C931.82 784.668 932.151 783.87 932.739 783.282C933.327 782.694 934.125 782.363 934.957 782.363C935.789 782.363 936.587 782.694 937.175 783.282C937.764 783.87 938.094 784.668 938.094 785.5Z" fill="#C5CEDA"/>
<path d="M151.555 493.952L163.015 495.849L151.555 497.721L149.658 509.181L147.786 497.721L136.326 495.849L147.786 493.952L149.658 482.492L151.555 493.952Z" fill="#D7DCE3"/>
<path d="M152.34 495.846L159.094 505.282L149.658 498.502L140.223 505.282L147.002 495.846L140.223 486.41L149.658 493.165L159.094 486.41L152.34 495.846Z" fill="#D7DCE3"/>
<path d="M152.314 495.849C152.34 496.379 152.205 496.905 151.929 497.358C151.653 497.811 151.248 498.171 150.765 498.392C150.283 498.612 149.745 498.683 149.222 498.595C148.698 498.508 148.213 498.265 147.829 497.899C147.445 497.533 147.179 497.061 147.066 496.542C146.953 496.024 146.998 495.483 147.194 494.991C147.391 494.498 147.731 494.075 148.17 493.778C148.609 493.48 149.127 493.32 149.658 493.32C150.001 493.302 150.343 493.355 150.665 493.475C150.987 493.594 151.281 493.778 151.529 494.014C151.778 494.251 151.975 494.536 152.11 494.851C152.245 495.167 152.315 495.506 152.314 495.849Z" fill="#C5CEDA"/>
<path d="M984.21 502.477L995.67 504.375L984.21 506.272L982.338 517.731L980.441 506.272L968.981 504.375L980.441 502.477L982.338 491.043L984.21 502.477Z" fill="#D7DCE3"/>
<path d="M984.994 504.377L991.774 513.813L982.338 507.033L972.902 513.813L979.657 504.377L972.902 494.941L982.338 501.721L991.774 494.941L984.994 504.377Z" fill="#D7DCE3"/>
<path d="M982.338 507.031C983.805 507.031 984.994 505.842 984.994 504.375C984.994 502.908 983.805 501.719 982.338 501.719C980.871 501.719 979.682 502.908 979.682 504.375C979.682 505.842 980.871 507.031 982.338 507.031Z" fill="#C5CEDA"/>
<path d="M1106.45 272.096L1117.91 273.968L1106.45 275.866L1104.55 287.325L1102.68 275.866L1091.22 273.968L1102.68 272.096L1104.55 260.637L1106.45 272.096Z" fill="#D7DCE3"/>
<path d="M1107.23 273.971L1113.98 283.407L1104.55 276.653L1095.11 283.407L1101.89 273.971L1095.11 264.535L1104.55 271.315L1113.98 264.535L1107.23 273.971Z" fill="#D7DCE3"/>
<path d="M1104.55 276.625C1106.01 276.625 1107.2 275.436 1107.2 273.969C1107.2 272.502 1106.01 271.312 1104.55 271.312C1103.08 271.312 1101.89 272.502 1101.89 273.969C1101.89 275.436 1103.08 276.625 1104.55 276.625Z" fill="#C5CEDA"/>
<path d="M310.269 43.1588L321.729 45.0561L310.269 46.9534L308.372 58.3877L306.5 46.9534L295.04 45.0561L306.5 43.1588L308.372 31.6992L310.269 43.1588Z" fill="#D7DCE3"/>
<path d="M311.054 45.053L317.808 54.4888L308.372 47.7092L298.937 54.4888L305.716 45.053L298.937 35.6172L308.372 42.3715L317.808 35.6172L311.054 45.053Z" fill="#D7DCE3"/>
<path d="M308.372 47.7108C309.839 47.7108 311.028 46.5216 311.028 45.0546C311.028 43.5877 309.839 42.3984 308.372 42.3984C306.905 42.3984 305.716 43.5877 305.716 45.0546C305.716 46.5216 306.905 47.7108 308.372 47.7108Z" fill="#C5CEDA"/>
<path d="M383.53 566.985L394.964 568.882L383.53 570.754L381.632 582.214L379.76 570.754L368.301 568.882L379.76 566.985L381.632 555.551L383.53 566.985Z" fill="#D7DCE3"/>
<path d="M384.315 568.881L391.069 578.317L381.633 571.537L372.197 578.317L378.977 568.881L372.197 559.445L381.633 566.2L391.069 559.445L384.315 568.881Z" fill="#D7DCE3"/>
<path d="M381.633 571.535C383.1 571.535 384.289 570.346 384.289 568.879C384.289 567.412 383.1 566.223 381.633 566.223C380.166 566.223 378.977 567.412 378.977 568.879C378.977 570.346 380.166 571.535 381.633 571.535Z" fill="#C5CEDA"/>
<path d="M626.028 772.776L637.487 774.648L626.028 776.545L624.13 787.98L622.233 776.545L610.799 774.648L622.233 772.776L624.13 761.316L626.028 772.776Z" fill="#D7DCE3"/>
<path d="M626.812 774.647L633.566 784.083L624.13 777.328L614.694 784.083L621.474 774.647L614.694 765.211L624.13 771.991L633.566 765.211L626.812 774.647Z" fill="#D7DCE3"/>
<path d="M626.786 774.652C626.786 775.177 626.63 775.691 626.338 776.127C626.047 776.564 625.632 776.905 625.146 777.106C624.661 777.307 624.127 777.359 623.612 777.257C623.096 777.154 622.623 776.901 622.252 776.53C621.88 776.158 621.627 775.685 621.525 775.17C621.422 774.655 621.475 774.121 621.676 773.635C621.877 773.15 622.217 772.735 622.654 772.443C623.091 772.151 623.605 771.996 624.13 771.996C624.483 771.977 624.837 772.034 625.167 772.161C625.498 772.288 625.798 772.483 626.048 772.733C626.299 772.983 626.494 773.284 626.621 773.614C626.748 773.945 626.804 774.298 626.786 774.652Z" fill="#C5CEDA"/>
<path d="M744.824 241.534L756.283 243.406L744.824 245.303L742.926 256.763L741.054 245.303L729.595 243.406L741.054 241.534L742.926 230.074L744.824 241.534Z" fill="#D7DCE3"/>
<path d="M745.608 243.408L752.363 252.844L742.927 246.09L733.491 252.844L740.271 243.408L733.491 233.973L742.927 240.752L752.363 233.973L745.608 243.408Z" fill="#D7DCE3"/>
<path d="M745.582 243.406C745.582 243.931 745.426 244.445 745.134 244.881C744.842 245.318 744.428 245.659 743.942 245.86C743.457 246.061 742.923 246.113 742.408 246.011C741.892 245.908 741.419 245.655 741.047 245.284C740.676 244.912 740.423 244.439 740.321 243.924C740.218 243.409 740.271 242.874 740.472 242.389C740.673 241.904 741.013 241.489 741.45 241.197C741.887 240.905 742.4 240.749 742.926 240.749C743.279 240.731 743.633 240.788 743.963 240.915C744.294 241.042 744.594 241.237 744.844 241.487C745.095 241.737 745.29 242.038 745.417 242.368C745.544 242.699 745.6 243.052 745.582 243.406V243.406Z" fill="#C5CEDA"/>
<path d="M221.603 184.796L235.111 186.997L221.603 189.223L219.376 202.757L217.15 189.223L203.642 186.997L217.15 184.796L219.376 171.262L221.603 184.796Z" fill="#D7DCE3"/>
<path d="M222.514 186.994L230.508 198.15L219.377 190.156L208.246 198.15L216.215 186.994L208.246 175.863L219.377 183.857L230.508 175.863L222.514 186.994Z" fill="#D7DCE3"/>
<path d="M222.615 186.994C222.62 187.616 222.441 188.225 222.099 188.744C221.757 189.263 221.269 189.669 220.697 189.91C220.124 190.152 219.492 190.217 218.882 190.099C218.272 189.981 217.711 189.684 217.27 189.247C216.828 188.809 216.527 188.25 216.404 187.641C216.281 187.032 216.341 186.4 216.578 185.825C216.815 185.25 217.217 184.759 217.733 184.413C218.25 184.067 218.857 183.883 219.479 183.883C220.306 183.883 221.1 184.21 221.688 184.793C222.275 185.375 222.609 186.167 222.615 186.994V186.994Z" fill="#C5CEDA"/>
<path d="M541.788 13.5087L555.297 15.7348L541.788 17.961L539.562 31.4949L537.336 17.961L523.827 15.7348L537.336 13.5087L539.562 0L541.788 13.5087Z" fill="#D7DCE3"/>
<path d="M542.698 15.7323L550.692 26.863L539.561 18.8944L528.431 26.863L536.425 15.7323L528.431 4.60156L539.561 12.5954L550.692 4.60156L542.698 15.7323Z" fill="#D7DCE3"/>
<path d="M542.699 15.7345C542.699 16.5665 542.369 17.3643 541.781 17.9526C541.192 18.5409 540.395 18.8714 539.563 18.8714C538.731 18.8714 537.933 18.5409 537.345 17.9526C536.756 17.3643 536.426 16.5665 536.426 15.7345C536.426 14.9026 536.756 14.1047 537.345 13.5164C537.933 12.9281 538.731 12.5977 539.563 12.5977C540.395 12.5977 541.192 12.9281 541.781 13.5164C542.369 14.1047 542.699 14.9026 542.699 15.7345V15.7345Z" fill="#C5CEDA"/>
<path d="M455.5 295.849L469.009 298.075L455.5 300.301L453.274 313.809L451.022 300.301L437.514 298.075L451.022 295.849L453.274 282.34L455.5 295.849Z" fill="#D7DCE3"/>
<path d="M456.412 298.072L464.381 309.203L453.275 301.234L442.145 309.203L450.113 298.072L442.145 286.941L453.275 294.935L464.381 286.941L456.412 298.072Z" fill="#D7DCE3"/>
<path d="M456.386 298.074C456.386 298.696 456.201 299.303 455.856 299.82C455.51 300.336 455.018 300.738 454.444 300.975C453.869 301.212 453.237 301.272 452.628 301.149C452.019 301.026 451.46 300.725 451.022 300.283C450.584 299.842 450.288 299.281 450.17 298.671C450.051 298.061 450.117 297.429 450.358 296.856C450.6 296.284 451.006 295.796 451.525 295.454C452.044 295.112 452.653 294.933 453.274 294.938C453.685 294.938 454.092 295.019 454.471 295.177C454.85 295.335 455.194 295.566 455.484 295.858C455.773 296.149 456.002 296.496 456.156 296.876C456.311 297.256 456.389 297.664 456.386 298.074Z" fill="#C5CEDA"/>
<path d="M247.102 723.169L260.61 725.395L247.102 727.621L244.875 741.13L242.649 727.621L229.141 725.395L242.649 723.169L244.875 709.66L247.102 723.169Z" fill="#D7DCE3"/>
<path d="M248.013 725.396L256.007 736.527L244.876 728.558L233.745 736.527L241.714 725.396L233.745 714.266L244.876 722.26L256.007 714.266L248.013 725.396Z" fill="#D7DCE3"/>
<path d="M247.911 725.395C247.911 726.015 247.727 726.622 247.383 727.137C247.038 727.653 246.548 728.055 245.975 728.293C245.402 728.53 244.771 728.592 244.163 728.471C243.554 728.35 242.995 728.051 242.556 727.613C242.118 727.174 241.819 726.615 241.698 726.007C241.577 725.398 241.639 724.767 241.876 724.194C242.114 723.621 242.516 723.131 243.032 722.786C243.548 722.442 244.154 722.258 244.775 722.258C245.606 722.258 246.404 722.588 246.993 723.177C247.581 723.765 247.911 724.563 247.911 725.395V725.395Z" fill="#C5CEDA"/>
<path d="M793.166 555.528L806.675 557.754L793.166 559.981L790.94 573.489L788.714 559.981L775.18 557.754L788.714 555.528L790.94 542.02L793.166 555.528Z" fill="#D7DCE3"/>
<path d="M794.077 557.752L802.071 568.883L790.94 560.889L779.81 568.883L787.778 557.752L779.81 546.621L790.94 554.59L802.071 546.621L794.077 557.752Z" fill="#D7DCE3"/>
<path d="M794.076 557.75C794.076 558.582 793.746 559.38 793.158 559.968C792.569 560.556 791.771 560.887 790.94 560.887C790.108 560.887 789.31 560.556 788.721 559.968C788.133 559.38 787.803 558.582 787.803 557.75C787.803 556.918 788.133 556.12 788.721 555.532C789.31 554.944 790.108 554.613 790.94 554.613C791.771 554.613 792.569 554.944 793.158 555.532C793.746 556.12 794.076 556.918 794.076 557.75Z" fill="#C5CEDA"/>
<path d="M466.988 100.751C470.798 77.2792 454.859 55.1629 431.388 51.3529C407.916 47.5429 385.799 63.4819 381.989 86.9537C378.179 110.425 394.118 132.542 417.59 136.352C441.062 140.162 463.178 124.223 466.988 100.751Z" fill="#CAEDF3"/>
<path d="M1105.78 414.001C1111.24 390.858 1096.91 367.669 1073.77 362.207C1050.62 356.744 1027.44 371.077 1021.97 394.221C1016.51 417.364 1030.84 440.553 1053.99 446.015C1077.13 451.478 1100.32 437.144 1105.78 414.001Z" fill="#CAEDF3"/>
<path d="M716.01 876.998C739.789 876.998 759.066 857.721 759.066 833.942C759.066 810.163 739.789 790.887 716.01 790.887C692.231 790.887 672.954 810.163 672.954 833.942C672.954 857.721 692.231 876.998 716.01 876.998Z" fill="#CAEDF3"/>
<path d="M926.268 127.959C929.397 114.701 921.186 101.417 907.928 98.2883C894.671 95.1592 881.387 103.37 878.258 116.628C875.128 129.885 883.339 143.169 896.597 146.299C909.855 149.428 923.139 141.217 926.268 127.959Z" fill="#CAEDF3"/>
<path d="M272.691 543.816C282.323 534.183 282.323 518.567 272.691 508.934C263.059 499.302 247.442 499.302 237.81 508.934C228.178 518.567 228.178 534.183 237.81 543.816C247.442 553.448 263.059 553.448 272.691 543.816Z" fill="#CAEDF3"/>
</svg>
