<svg width="31" height="31" viewBox="0 0 31 31" fill="none" xmlns="http://www.w3.org/2000/svg">
<rect width="31" height="31" rx="6" fill="white"/>
<mask id="mask0_17_15" style="mask-type:alpha" maskUnits="userSpaceOnUse" x="0" y="0" width="31" height="31">
<rect width="31" height="31" fill="#CAEDF3"/>
</mask>
<g mask="url(#mask0_17_15)">
<path d="M18.7191 14.6274C19.4835 13.7126 19.9621 12.4891 19.9621 11.1266C19.9621 8.27845 17.9114 6 15.4051 6C12.8987 6 10.8481 8.27845 10.8481 11.1266C10.8481 12.4948 11.33 13.7229 12.099 14.6388C9.78973 15.0786 8 17.1349 8 19.5569V23.4304C8 23.7721 8.22783 24 8.56965 24C8.91146 24 9.13929 23.7722 9.13929 23.4304V19.5569C9.13929 17.3924 10.8482 15.6835 13.0127 15.6835H13.3579C13.9765 16.0356 14.6658 16.2532 15.4051 16.2532C16.1445 16.2532 16.8337 16.0356 17.4535 15.6835C17.4547 15.6835 17.4547 15.6835 17.4558 15.6835H17.7975C19.9621 15.6835 21.6709 17.3924 21.6709 19.5569V23.4304C21.6709 23.7721 21.8988 24 22.2406 24C22.5823 24 22.8102 23.7722 22.9241 23.4304V19.5569C22.9241 17.0984 21.0785 15.025 18.7191 14.6274ZM11.9874 11.1266C11.9874 8.96202 13.4684 7.13923 15.4051 7.13923C17.3419 7.13923 18.8229 8.96202 18.8229 11.1266C18.8229 13.2911 17.3419 15.1139 15.4051 15.1139C13.4684 15.1139 11.9874 13.2912 11.9874 11.1266V11.1266Z" fill="#182641"/>
</g>
</svg>
