<svg width="24" height="24" viewBox="0 0 24 24" fill="none" xmlns="http://www.w3.org/2000/svg">
<mask id="mask0_6135_3627" style="mask-type:alpha" maskUnits="userSpaceOnUse" x="0" y="0" width="24" height="24">
<rect width="24" height="24" fill="#C4C4C4"/>
</mask>
<g mask="url(#mask0_6135_3627)">
<path fill-rule="evenodd" clip-rule="evenodd" d="M12.014 1.04147C9.39931 1.03875 6.86916 1.98874 4.87693 3.72121C2.8847 5.45368 1.56061 7.85538 1.14197 10.4959C0.723332 13.1364 1.2375 15.8432 2.59232 18.1311C3.94714 20.419 6.05407 22.1385 8.53552 22.9815C9.08261 23.0852 9.28524 22.7327 9.28524 22.4356C9.28524 22.1384 9.28524 21.4612 9.28524 20.5215C6.22554 21.2125 5.57713 19.015 5.57713 19.015C5.37325 18.334 4.94011 17.7488 4.3546 17.3635C3.36171 16.6724 4.43565 16.6724 4.43565 16.6724C4.78369 16.7227 5.11599 16.8534 5.40737 17.0545C5.69875 17.2557 5.94159 17.522 6.11747 17.8334C6.26692 18.1106 6.4684 18.3549 6.71036 18.5523C6.95232 18.7497 7.23 18.8962 7.52746 18.9835C7.82492 19.0709 8.1363 19.0972 8.44374 19.0611C8.75118 19.025 9.04862 18.9272 9.31901 18.7732C9.3614 18.2047 9.60094 17.6704 9.99444 17.2667C7.54938 16.9834 4.98274 16.016 4.98274 11.704C4.96595 10.5866 5.36982 9.50536 6.11071 8.6842C5.78007 7.71274 5.81865 6.64959 6.21878 5.70588C6.21878 5.70588 7.14412 5.40183 9.24471 6.85989C11.0485 6.35321 12.9524 6.35321 14.7562 6.85989C16.8568 5.40183 17.7754 5.70588 17.7754 5.70588C18.1797 6.64824 18.2207 7.71218 17.8902 8.6842C18.6311 9.50536 19.035 10.5866 19.0182 11.704C19.0182 16.0298 16.4448 16.9765 13.993 17.2322C14.2559 17.5025 14.4589 17.8276 14.5883 18.1853C14.7176 18.543 14.7703 18.9249 14.7427 19.3052C14.7427 20.8117 14.7427 22.0279 14.7427 22.3941C14.7427 22.7604 14.9386 23.0437 15.4992 22.94C17.9728 22.0891 20.0706 20.3669 21.4183 18.0805C22.766 15.7941 23.276 13.0922 22.8574 10.4568C22.4388 7.82142 21.1187 5.42385 19.1326 3.69177C17.1466 1.95968 14.6237 1.00571 12.014 1V1.04147Z" fill="#FFFBF9"/>
</g>
</svg>
