<svg width="24" height="24" viewBox="0 0 24 24" fill="none" xmlns="http://www.w3.org/2000/svg">
<mask id="mask0_6135_3625" style="mask-type:alpha" maskUnits="userSpaceOnUse" x="0" y="0" width="24" height="24">
<rect width="24" height="24" fill="#838699"/>
</mask>
<g mask="url(#mask0_6135_3625)">
<path d="M23.8413 13.5813L22.5034 9.469L19.8557 1.31239C19.8252 1.22139 19.7669 1.14227 19.689 1.08622C19.6111 1.03016 19.5176 1 19.4216 1C19.3257 1 19.2321 1.03016 19.1542 1.08622C19.0763 1.14227 19.018 1.22139 18.9876 1.31239L16.3413 9.46405H7.54367L4.89603 1.31239C4.86555 1.22139 4.80724 1.14227 4.72935 1.08622C4.65146 1.03016 4.55792 1 4.46195 1C4.36598 1 4.27244 1.03016 4.19455 1.08622C4.11666 1.14227 4.05835 1.22139 4.02787 1.31239L1.38518 9.46405L0.0464976 13.5813C-0.0128327 13.7641 -0.0128964 13.9609 0.0463151 14.1438C0.105527 14.3266 0.220987 14.4861 0.376215 14.5994L11.9418 23.0051L23.5074 14.5994C23.6633 14.4866 23.7795 14.3274 23.8395 14.1445C23.8995 13.9617 23.9001 13.7645 23.8413 13.5813Z" fill="#FC6D26"/>
<path d="M11.945 22.9974L16.3417 9.46338H7.54688L11.945 22.9974Z" fill="#E24329"/>
<path d="M11.9415 22.9981L7.54336 9.46338H1.3877L11.9415 22.9981Z" fill="#FC6D26"/>
<path d="M1.38322 9.46826L0.0445445 13.5805C-0.0147858 13.7633 -0.0148496 13.9602 0.044362 14.1431C0.103574 14.3259 0.219034 14.4854 0.374262 14.5987L11.9398 23.0051L1.38322 9.46826Z" fill="#FCA326"/>
<path d="M1.38477 9.46844H7.54821L4.89562 1.31678C4.86514 1.22578 4.80683 1.14667 4.72894 1.09061C4.65104 1.03455 4.5575 1.00439 4.46154 1.00439C4.36557 1.00439 4.27203 1.03455 4.19414 1.09061C4.11624 1.14667 4.05794 1.22578 4.02746 1.31678L1.38477 9.46844Z" fill="#E24329"/>
<path d="M11.9443 22.9981L16.341 9.46338H22.5038L11.9443 22.9981Z" fill="#FC6D26"/>
<path d="M22.5029 9.46826L23.8423 13.5805C23.9016 13.7633 23.9017 13.9602 23.8425 14.1431C23.7833 14.3259 23.6678 14.4854 23.5126 14.5987L11.9463 22.9973L22.5029 9.46826Z" fill="#FCA326"/>
<path d="M22.506 9.46844H16.3418L18.9894 1.31678C19.0199 1.22578 19.0782 1.14667 19.1561 1.09061C19.234 1.03455 19.3276 1.00439 19.4235 1.00439C19.5195 1.00439 19.613 1.03455 19.6909 1.09061C19.7688 1.14667 19.8271 1.22578 19.8576 1.31678L22.5052 9.46844H22.506Z" fill="#E24329"/>
</g>
</svg>
