<svg width="719" height="930" viewBox="0 0 719 930" fill="none" xmlns="http://www.w3.org/2000/svg">
<rect x="5.79883" y="203.328" width="54" height="172.94" rx="27" transform="rotate(-60 5.79883 203.328)" fill="url(#paint0_linear_9375_43502)"/>
<rect x="48.4336" y="262.229" width="29.1312" height="138.067" rx="14.5656" transform="rotate(-60 48.4336 262.229)" fill="url(#paint1_linear_9375_43502)"/>
<rect x="475" y="-10.8164" width="54" height="138.315" rx="27" transform="rotate(-45 475 -10.8164)" fill="url(#paint2_linear_9375_43502)"/>
<rect x="757.785" y="540.158" width="54" height="138.315" rx="27" transform="rotate(120 757.785 540.158)" fill="url(#paint3_linear_9375_43502)"/>
<rect x="604.77" y="974.367" width="54" height="208.734" rx="27" transform="rotate(120 604.77 974.367)" fill="url(#paint4_linear_9375_43502)"/>
<rect y="746.766" width="54" height="208.734" rx="27" transform="rotate(-60 0 746.766)" fill="url(#paint5_linear_9375_43502)"/>
<defs>
<linearGradient id="paint0_linear_9375_43502" x1="64.3653" y1="243.034" x2="-28.1443" y2="404.072" gradientUnits="userSpaceOnUse">
<stop stop-color="#1E2F4E"/>
<stop offset="1" stop-color="#334465"/>
</linearGradient>
<linearGradient id="paint1_linear_9375_43502" x1="110.733" y1="61.1452" x2="-29.8701" y2="344.734" gradientUnits="userSpaceOnUse">
<stop stop-color="#1E2F4E"/>
<stop offset="1" stop-color="#334465"/>
</linearGradient>
<linearGradient id="paint2_linear_9375_43502" x1="533.566" y1="20.9401" x2="468.581" y2="162.382" gradientUnits="userSpaceOnUse">
<stop stop-color="#1E2F4E"/>
<stop offset="1" stop-color="#334465"/>
</linearGradient>
<linearGradient id="paint3_linear_9375_43502" x1="816.352" y1="571.915" x2="751.366" y2="713.357" gradientUnits="userSpaceOnUse">
<stop stop-color="#1E2F4E"/>
<stop offset="1" stop-color="#334465"/>
</linearGradient>
<linearGradient id="paint4_linear_9375_43502" x1="720.254" y1="670.362" x2="534.621" y2="1129.43" gradientUnits="userSpaceOnUse">
<stop stop-color="#2C3D5E"/>
<stop offset="1" stop-color="#182641"/>
</linearGradient>
<linearGradient id="paint5_linear_9375_43502" x1="115.484" y1="442.76" x2="-70.1483" y2="901.83" gradientUnits="userSpaceOnUse">
<stop stop-color="#2C3D5E"/>
<stop offset="1" stop-color="#182641"/>
</linearGradient>
</defs>
</svg>
